<svg xmlns="http://www.w3.org/2000/svg" xmlns:xlink="http://www.w3.org/1999/xlink" width="110" height="110" viewBox="0 0 500 500"><path d="M 349.6102480415719 238.83896420093996 L 409.6102480415719 238.83896420093996 A 160 160 0 0 0 261.1610357990601 90.38975195842812 L 261.1610357990601 150.38975195842812 A 100 100 0 0 1 349.6102480415719 238.83896420093996 Z" transform="rotate(-45 250 250)" style="fill:#eb7260"/><path d="M 349.6102480415719 238.83896420093996 L 409.6102480415719 238.83896420093996 A 160 160 0 0 0 261.1610357990601 90.38975195842812 L 261.1610357990601 150.38975195842812 A 100 100 0 0 1 349.6102480415719 238.83896420093996 Z" transform="rotate(-135 250 250)" style="fill:#eb7260"/><path d="M 349.6102480415719 238.83896420093996 L 409.6102480415719 238.83896420093996 A 160 160 0 0 0 261.1610357990601 90.38975195842812 L 261.1610357990601 150.38975195842812 A 100 100 0 0 1 349.6102480415719 238.83896420093996 Z" transform="rotate(-225 250 250)" style="fill:#eb7260"/></svg>